<svg xmlns="http://www.w3.org/2000/svg" xmlns:xlink="http://www.w3.org/1999/xlink" contentStyleType="text/css" height="1415px" preserveAspectRatio="none" style="width:678px;height:1415px;background:#FFFFFF;" version="1.1" viewBox="0 0 678 1415" width="678px" zoomAndPan="magnify"><title>Credit Scoring (PD) &#8212; &#1072;&#1088;&#1093;&#1080;&#1090;&#1077;&#1082;&#1090;&#1091;&#1088;&#1072; &#1087;&#1072;&#1081;&#1087;&#1083;&#1072;&#1081;&#1085;&#1072;</title><defs/><g><text fill="#000000" font-family="Helvetica" font-size="14" font-weight="bold" lengthAdjust="spacing" textLength="370.2891" x="147.0977" y="22.9951">Credit Scoring (PD) &#8212; &#1072;&#1088;&#1093;&#1080;&#1090;&#1077;&#1082;&#1090;&#1091;&#1088;&#1072; &#1087;&#1072;&#1081;&#1087;&#1083;&#1072;&#1081;&#1085;&#1072;</text><!--entity SRC--><g id="elem_SRC"><rect fill="#F2F5F8" height="89.8438" rx="5" ry="5" style="stroke:#4C78A8;stroke-width:0.5;" width="236.7852" x="109" y="44.2969"/><text fill="#1F2D3D" font-family="Helvetica" font-size="12" lengthAdjust="spacing" textLength="67.6875" x="119" y="65.4355">&#1048;&#1089;&#1090;&#1086;&#1095;&#1085;&#1080;&#1082;&#1080;</text><text fill="#1F2D3D" font-family="Helvetica" font-size="12" lengthAdjust="spacing" textLength="70.7227" x="119" y="79.4043">local mount</text><text fill="#1F2D3D" font-family="Helvetica" font-size="12" lengthAdjust="spacing" textLength="193.1426" x="119" y="93.373">train_data/, test_data/ (parquet)</text><text fill="#1F2D3D" font-family="Helvetica" font-size="12" lengthAdjust="spacing" textLength="191.5313" x="119" y="107.3418">train_target.csv, test_target.csv</text><text fill="#1F2D3D" font-family="Helvetica" font-size="12" lengthAdjust="spacing" textLength="216.7852" x="119" y="121.3105">26.2 &#1084;&#1083;&#1085; &#1089;&#1090;&#1088;&#1086;&#1082; &#183; 3.5 &#1084;&#1083;&#1085; &#1082;&#1083;&#1080;&#1077;&#1085;&#1090;&#1086;&#1074;</text></g><!--entity HRAW--><g id="elem_HRAW"><rect fill="#E3EAF2" height="47.9375" rx="5" ry="5" style="stroke:#4C78A8;stroke-width:0.5;" width="120.0605" x="169.5" y="288.2969"/><text fill="#1F2D3D" font-family="Helvetica" font-size="12" lengthAdjust="spacing" textLength="97.6289" x="179.5" y="309.4355">HDFS  /data/raw</text><text fill="#1F2D3D" font-family="Helvetica" font-size="12" lengthAdjust="spacing" textLength="100.0605" x="179.5" y="323.4043">&#1089;&#1099;&#1088;&#1100;&#1105; &#1074; parquet</text></g><!--entity HFEAT--><g id="elem_HFEAT"><rect fill="#E3EAF2" height="47.9375" rx="5" ry="5" style="stroke:#4C78A8;stroke-width:0.5;" width="241.1152" x="111" y="613.2969"/><text fill="#1F2D3D" font-family="Helvetica" font-size="12" lengthAdjust="spacing" textLength="125.3672" x="121" y="634.4355">HDFS  /data/features</text><text fill="#1F2D3D" font-family="Helvetica" font-size="12" lengthAdjust="spacing" textLength="221.1152" x="121" y="648.4043">&#1074;&#1080;&#1090;&#1088;&#1080;&#1085;&#1072; &#1082;&#1083;&#1080;&#1077;&#1085;&#1090;&#1086;&#1074; 3 000 000 &#215; 183</text></g><!--entity E1--><g id="elem_E1"><rect fill="#DCE9F5" height="47.9375" rx="5" ry="5" style="stroke:#4C78A8;stroke-width:0.5;" width="125.1758" x="167" y="193.2969"/><text fill="#1F2D3D" font-family="Helvetica" font-size="12" lengthAdjust="spacing" textLength="105.1758" x="177" y="214.4355">ingest_to_hdfs.py</text><text fill="#1F2D3D" font-family="Helvetica" font-size="12" lengthAdjust="spacing" textLength="88.6113" x="177" y="228.4043">&#1089;&#1099;&#1088;&#1100;&#1105; &#8594; HDFS</text></g><!--entity E2--><g id="elem_E2"><rect fill="#DCE9F5" height="61.9063" rx="5" ry="5" style="stroke:#4C78A8;stroke-width:0.5;" width="240.2773" x="109.5" y="383.2969"/><text fill="#1F2D3D" font-family="Helvetica" font-size="12" lengthAdjust="spacing" textLength="79.9922" x="119.5" y="404.4355">eda_spark.py</text><text fill="#1F2D3D" font-family="Helvetica" font-size="12" lengthAdjust="spacing" textLength="220.2773" x="119.5" y="418.4043">Spark SQL: &#1073;&#1072;&#1083;&#1072;&#1085;&#1089;, &#1076;&#1083;&#1080;&#1085;&#1072; &#1080;&#1089;&#1090;&#1086;&#1088;&#1080;&#1080;,</text><text fill="#1F2D3D" font-family="Helvetica" font-size="12" lengthAdjust="spacing" textLength="112.1426" x="119.5" y="432.373">&#1089;&#1088;&#1077;&#1079;&#1099; &#1087;&#1086; &#1082;&#1083;&#1072;&#1089;&#1089;&#1072;&#1084;</text></g><!--entity E3--><g id="elem_E3"><rect fill="#DCE9F5" height="61.9063" rx="5" ry="5" style="stroke:#4C78A8;stroke-width:0.5;" width="218.832" x="121" y="504.2969"/><text fill="#1F2D3D" font-family="Helvetica" font-size="12" lengthAdjust="spacing" textLength="107.4785" x="131" y="525.4355">features_spark.py</text><text fill="#1F2D3D" font-family="Helvetica" font-size="12" lengthAdjust="spacing" textLength="185.7012" x="131" y="539.4043">&#1072;&#1075;&#1088;&#1077;&#1075;&#1072;&#1094;&#1080;&#1103; rn &#8594; id (Spark SQL)</text><text fill="#1F2D3D" font-family="Helvetica" font-size="12" lengthAdjust="spacing" textLength="198.832" x="131" y="553.373">mean/max/last + &#1086;&#1082;&#1086;&#1085;&#1085;&#1099;&#1077; &#1092;&#1080;&#1095;&#1080;</text></g><!--entity E4A--><g id="elem_E4A"><rect fill="#DCE9F5" height="61.9063" rx="5" ry="5" style="stroke:#4C78A8;stroke-width:0.5;" width="187.2148" x="112" y="708.2969"/><text fill="#1F2D3D" font-family="Helvetica" font-size="12" lengthAdjust="spacing" textLength="104.1035" x="122" y="729.4355">baseline_mllib.py</text><text fill="#1F2D3D" font-family="Helvetica" font-size="12" lengthAdjust="spacing" textLength="127.7695" x="122" y="743.4043">LogReg (Spark MLlib)</text><text fill="#1F2D3D" font-family="Helvetica" font-size="12" lengthAdjust="spacing" textLength="167.2148" x="122" y="757.373">ROC-AUC 0.720 &#183; Gini 0.440</text></g><!--entity E4B--><g id="elem_E4B"><rect fill="#FBE0D6" height="61.9063" rx="5" ry="5" style="stroke:#4C78A8;stroke-width:0.5;" width="187.2148" x="256" y="817.2969"/><text fill="#1F2D3D" font-family="Helvetica" font-size="12" lengthAdjust="spacing" textLength="46.4648" x="266" y="838.4355">train.py</text><text fill="#1F2D3D" font-family="Helvetica" font-size="12" lengthAdjust="spacing" textLength="129.627" x="266" y="852.4043">LightGBM (&#1086;&#1089;&#1085;&#1086;&#1074;&#1085;&#1072;&#1103;)</text><text fill="#1F2D3D" font-family="Helvetica" font-size="12" lengthAdjust="spacing" textLength="167.2148" x="266" y="866.373">ROC-AUC 0.757 &#183; Gini 0.515</text></g><!--entity E4C--><g id="elem_E4C"><rect fill="#FBE0D6" height="61.9063" rx="5" ry="5" style="stroke:#4C78A8;stroke-width:0.5;" width="154.3848" x="243.5" y="926.2969"/><text fill="#1F2D3D" font-family="Helvetica" font-size="12" lengthAdjust="spacing" textLength="104.3789" x="253.5" y="947.4355">train_catboost.py</text><text fill="#1F2D3D" font-family="Helvetica" font-size="12" lengthAdjust="spacing" textLength="134.3848" x="253.5" y="961.4043">CatBoost (&#1089;&#1088;&#1072;&#1074;&#1085;&#1077;&#1085;&#1080;&#1077;)</text><text fill="#1F2D3D" font-family="Helvetica" font-size="12" lengthAdjust="spacing" textLength="94.0313" x="253.5" y="975.373">ROC-AUC 0.753</text></g><!--entity E5--><g id="elem_E5"><rect fill="#FBE0D6" height="61.9063" rx="5" ry="5" style="stroke:#4C78A8;stroke-width:0.5;" width="218.1641" x="110.5" y="1035.2969"/><text fill="#1F2D3D" font-family="Helvetica" font-size="12" lengthAdjust="spacing" textLength="70.752" x="120.5" y="1056.4355">evaluate.py</text><text fill="#1F2D3D" font-family="Helvetica" font-size="12" lengthAdjust="spacing" textLength="165.6563" x="120.5" y="1070.4043">ROC &#183; PR &#183; KS &#183; &#1082;&#1072;&#1083;&#1080;&#1073;&#1088;&#1086;&#1074;&#1082;&#1072;</text><text fill="#1F2D3D" font-family="Helvetica" font-size="12" lengthAdjust="spacing" textLength="198.1641" x="120.5" y="1084.373">&#1074;&#1072;&#1078;&#1085;&#1086;&#1089;&#1090;&#1100; &#183; &#1089;&#1088;&#1072;&#1074;&#1085;&#1077;&#1085;&#1080;&#1077; &#1084;&#1086;&#1076;&#1077;&#1083;&#1077;&#1081;</text></g><!--entity E6--><g id="elem_E6"><rect fill="#FBE0D6" height="47.9375" rx="5" ry="5" style="stroke:#4C78A8;stroke-width:0.5;" width="191.3281" x="309" y="1156.2969"/><text fill="#1F2D3D" font-family="Helvetica" font-size="12" lengthAdjust="spacing" textLength="60.7207" x="319" y="1177.4355">predict.py</text><text fill="#1F2D3D" font-family="Helvetica" font-size="12" lengthAdjust="spacing" textLength="171.3281" x="319" y="1191.4043">&#1089;&#1082;&#1086;&#1088;&#1080;&#1085;&#1075; 500 &#1090;&#1099;&#1089;. &#1082;&#1083;&#1080;&#1077;&#1085;&#1090;&#1086;&#1074;</text></g><!--entity E7--><g id="elem_E7"><rect fill="#FBE0D6" height="47.9375" rx="5" ry="5" style="stroke:#4C78A8;stroke-width:0.5;" width="195.7168" x="217.5" y="1251.2969"/><text fill="#1F2D3D" font-family="Helvetica" font-size="12" lengthAdjust="spacing" textLength="139.998" x="227.5" y="1272.4355">validate_submission.py</text><text fill="#1F2D3D" font-family="Helvetica" font-size="12" lengthAdjust="spacing" textLength="175.7168" x="227.5" y="1286.4043">&#1074;&#1086;&#1088;&#1086;&#1090;&#1072; &#1082;&#1072;&#1095;&#1077;&#1089;&#1090;&#1074;&#1072; submission</text></g><!--entity ROUT--><g id="elem_ROUT"><rect fill="#F2F5F8" height="47.9375" rx="5" ry="5" style="stroke:#4C78A8;stroke-width:0.5;" width="247.0684" x="7" y="1156.2969"/><text fill="#1F2D3D" font-family="Helvetica" font-size="12" lengthAdjust="spacing" textLength="47.209" x="17" y="1177.4355">reports/</text><text fill="#1F2D3D" font-family="Helvetica" font-size="12" lengthAdjust="spacing" textLength="227.0684" x="17" y="1191.4043">&#1075;&#1088;&#1072;&#1092;&#1080;&#1082;&#1080; EDA &#1080; &#1084;&#1086;&#1076;&#1077;&#1083;&#1080;, metrics.json</text></g><!--entity MOUT--><g id="elem_MOUT"><rect fill="#F2F5F8" height="47.9375" rx="5" ry="5" style="stroke:#4C78A8;stroke-width:0.5;" width="163.6602" x="353.5" y="1042.2969"/><text fill="#1F2D3D" font-family="Helvetica" font-size="12" lengthAdjust="spacing" textLength="47.6602" x="363.5" y="1063.4355">models/</text><text fill="#1F2D3D" font-family="Helvetica" font-size="12" lengthAdjust="spacing" textLength="143.6602" x="363.5" y="1077.4043">lgbm.txt &#183; catboost.cbm</text></g><!--entity SOUT--><g id="elem_SOUT"><rect fill="#F2F5F8" height="47.9375" rx="5" ry="5" style="stroke:#4C78A8;stroke-width:0.5;" width="111.0488" x="438" y="1251.2969"/><text fill="#1F2D3D" font-family="Helvetica" font-size="12" lengthAdjust="spacing" textLength="91.0488" x="448" y="1272.4355">submission.csv</text><text fill="#1F2D3D" font-family="Helvetica" font-size="12" lengthAdjust="spacing" textLength="51.0879" x="448" y="1286.4043">id, score</text></g><!--entity AF--><g id="elem_AF"><rect fill="#FFF4E0" height="75.875" rx="5" ry="5" style="stroke:#4C78A8;stroke-width:0.5;" width="301.4844" x="371" y="51.2969"/><text fill="#1F2D3D" font-family="Helvetica" font-size="12" lengthAdjust="spacing" textLength="163.6348" x="381" y="72.4355">Airflow DAG  credit_scoring</text><text fill="#1F2D3D" font-family="Helvetica" font-size="12" lengthAdjust="spacing" textLength="271.8867" x="381" y="86.4043">ingest &#8594; eda &#8594; features &#8594; baseline &#8594; train &#8594;</text><text fill="#1F2D3D" font-family="Helvetica" font-size="12" lengthAdjust="spacing" textLength="281.4844" x="381" y="100.373">train_catboost &#8594; evaluate &#8594; predict &#8594; validate</text><text fill="#1F2D3D" font-family="Helvetica" font-size="12" lengthAdjust="spacing" textLength="206.1152" x="381" y="114.3418">&#1079;&#1072;&#1087;&#1091;&#1089;&#1082; &#1101;&#1090;&#1072;&#1087;&#1086;&#1074; &#1095;&#1077;&#1088;&#1077;&#1079; docker exec</text></g><!--link SRC to E1--><g id="link_SRC_E1"><path d="M228.2,134.3669 C228.51,154.0969 228.7749,170.5576 229.0349,186.9576 " fill="none" id="SRC-to-E1" style="stroke:#5A7FA6;stroke-width:1.0;"/><polygon fill="#5A7FA6" points="229.13,192.9569,232.9868,183.8946,229.0507,187.9575,224.9878,184.0214,229.13,192.9569" style="stroke:#5A7FA6;stroke-width:1.0;"/></g><!--link E1 to HRAW--><g id="link_E1_HRAW"><path d="M229.5,241.7669 C229.5,255.9669 229.5,268.0169 229.5,282.1569 " fill="none" id="E1-to-HRAW" style="stroke:#5A7FA6;stroke-width:1.0;"/><polygon fill="#5A7FA6" points="229.5,288.1569,233.5,279.1569,229.5,283.1569,225.5,279.1569,229.5,288.1569" style="stroke:#5A7FA6;stroke-width:1.0;"/></g><!--link HRAW to E2--><g id="link_HRAW_E2"><path d="M229.5,336.4869 C229.5,350.3369 229.5,362.0769 229.5,377.0269 " fill="none" id="HRAW-to-E2" style="stroke:#5A7FA6;stroke-width:1.0;"/><polygon fill="#5A7FA6" points="229.5,383.0269,233.5,374.0269,229.5,378.0269,225.5,374.0269,229.5,383.0269" style="stroke:#5A7FA6;stroke-width:1.0;"/></g><!--link E2 to E3--><g id="link_E2_E3"><path d="M229.75,445.3269 C229.9,463.3669 230.0501,480.2371 230.2001,498.2771 " fill="none" id="E2-to-E3" style="stroke:#5A7FA6;stroke-width:1.0;"/><polygon fill="#5A7FA6" points="230.25,504.2769,234.175,495.2439,230.2084,499.277,226.1753,495.3104,230.25,504.2769" style="stroke:#5A7FA6;stroke-width:1.0;"/></g><!--link E3 to HFEAT--><g id="link_E3_HFEAT"><path d="M230.8,566.2969 C230.95,581.2569 231.0696,593.0772 231.2096,606.9872 " fill="none" id="E3-to-HFEAT" style="stroke:#5A7FA6;stroke-width:1.0;"/><polygon fill="#5A7FA6" points="231.27,612.9869,235.1792,603.9471,231.2197,607.9871,227.1796,604.0276,231.27,612.9869" style="stroke:#5A7FA6;stroke-width:1.0;"/></g><!--link HFEAT to E4A--><g id="link_HFEAT_E4A"><path d="M225.47,661.4869 C221.87,675.3369 218.7709,687.2702 214.8809,702.2202 " fill="none" id="HFEAT-to-E4A" style="stroke:#5A7FA6;stroke-width:1.0;"/><polygon fill="#5A7FA6" points="213.37,708.0269,219.5074,700.3242,214.6291,703.188,211.7652,698.3096,213.37,708.0269" style="stroke:#5A7FA6;stroke-width:1.0;"/></g><!--link E4A to E4B--><g id="link_E4A_E4B"><path d="M246,770.3869 C265.63,784.9769 284.333,798.8797 303.993,813.4797 " fill="none" id="E4A-to-E4B" style="stroke:#5A7FA6;stroke-width:1.0;"/><polygon fill="#5A7FA6" points="308.81,817.0569,303.9693,808.4797,304.7958,814.0759,299.1997,814.9024,308.81,817.0569" style="stroke:#5A7FA6;stroke-width:1.0;"/></g><!--link E4B to E4C--><g id="link_E4B_E4C"><path d="M341.34,879.3869 C337.39,893.9769 334.2206,905.6661 330.2606,920.2661 " fill="none" id="E4B-to-E4C" style="stroke:#5A7FA6;stroke-width:1.0;"/><polygon fill="#5A7FA6" points="328.69,926.0569,334.9065,918.4178,329.9989,921.2312,327.1855,916.3236,328.69,926.0569" style="stroke:#5A7FA6;stroke-width:1.0;"/></g><!--link E4C to E5--><g id="link_E4C_E5"><path d="M292.1,988.3869 C278.33,1002.9769 265.9499,1016.095 252.1599,1030.695 " fill="none" id="E4C-to-E5" style="stroke:#5A7FA6;stroke-width:1.0;"/><polygon fill="#5A7FA6" points="248.04,1035.0569,257.1278,1031.2606,251.4733,1031.4219,251.3119,1025.7674,248.04,1035.0569" style="stroke:#5A7FA6;stroke-width:1.0;"/></g><!--link E5 to E6--><g id="link_E5_E6"><path d="M269.08,1097.3069 C299.58,1115.7769 332.9576,1135.979 361.0976,1153.019 " fill="none" id="E5-to-E6" style="stroke:#5A7FA6;stroke-width:1.0;"/><polygon fill="#5A7FA6" points="366.23,1156.1269,360.6034,1148.0435,361.953,1153.537,356.4595,1154.8866,366.23,1156.1269" style="stroke:#5A7FA6;stroke-width:1.0;"/></g><!--link E6 to E7--><g id="link_E6_E7"><path d="M382.04,1204.7669 C368.45,1218.9669 355.3297,1232.6833 341.7897,1246.8233 " fill="none" id="E6-to-E7" style="stroke:#5A7FA6;stroke-width:1.0;"/><polygon fill="#5A7FA6" points="337.64,1251.1569,346.7536,1247.423,341.0981,1247.5456,340.9755,1241.89,337.64,1251.1569" style="stroke:#5A7FA6;stroke-width:1.0;"/></g><!--link E6 to SOUT--><g id="link_E6_SOUT"><path d="M426.96,1204.7669 C440.55,1218.9669 453.6703,1232.6833 467.2103,1246.8233 " fill="none" id="E6-to-SOUT" style="stroke:#5A7FA6;stroke-width:1.0;"/><polygon fill="#5A7FA6" points="471.36,1251.1569,468.0245,1241.89,467.9019,1247.5456,462.2464,1247.423,471.36,1251.1569" style="stroke:#5A7FA6;stroke-width:1.0;"/></g><!--link HFEAT to E4B--><g id="link_HFEAT_E4B"><path d="M266.1,661.2969 C282.04,673.5269 299.94,689.8369 311.5,708.2969 C332.61,742.0069 341.3174,781.5263 345.5174,811.1363 " fill="none" id="HFEAT-to-E4B" style="stroke:#5A7FA6;stroke-width:1.0;stroke-dasharray:7.0,7.0;"/><polygon fill="#5A7FA6" points="346.36,817.0769,349.0564,807.6043,345.6578,812.1264,341.1357,808.7278,346.36,817.0769" style="stroke:#5A7FA6;stroke-width:1.0;"/><text fill="#5A6672" font-family="Helvetica" font-size="10" lengthAdjust="spacing" textLength="132.5586" x="338.5" y="743.0791">&#1083;&#1086;&#1082;&#1072;&#1083;&#1100;&#1085;&#1072;&#1103; &#1082;&#1086;&#1087;&#1080;&#1103; parquet</text></g><!--link E4B to MOUT--><g id="link_E4B_MOUT"><path d="M379.18,879.5469 C390.66,892.8769 402.85,909.3569 410.5,926.2969 C427.75,964.5169 432.7604,1007.7071 434.4204,1036.1471 " fill="none" id="E4B-to-MOUT" style="stroke:#5A7FA6;stroke-width:1.0;"/><polygon fill="#5A7FA6" points="434.77,1042.1369,438.2388,1032.9191,434.4787,1037.1454,430.2524,1033.3852,434.77,1042.1369" style="stroke:#5A7FA6;stroke-width:1.0;"/></g><!--link E4C to MOUT--><g id="link_E4C_MOUT"><path d="M352.84,988.3869 C371.18,1005.4469 389.367,1022.3801 406.297,1038.1301 " fill="none" id="E4C-to-MOUT" style="stroke:#5A7FA6;stroke-width:1.0;"/><polygon fill="#5A7FA6" points="410.69,1042.2169,406.8251,1033.1581,407.0292,1038.8112,401.376,1039.0153,410.69,1042.2169" style="stroke:#5A7FA6;stroke-width:1.0;"/></g><!--link MOUT to E6--><g id="link_MOUT_E6"><path d="M429.08,1090.5069 C423.76,1109.7269 417.8314,1131.1245 412.5114,1150.3345 " fill="none" id="MOUT-to-E6" style="stroke:#5A7FA6;stroke-width:1.0;stroke-dasharray:7.0,7.0;"/><polygon fill="#5A7FA6" points="410.91,1156.1169,417.1669,1148.5109,412.2445,1151.2982,409.4571,1146.3758,410.91,1156.1169" style="stroke:#5A7FA6;stroke-width:1.0;"/><text fill="#5A6672" font-family="Helvetica" font-size="10" lengthAdjust="spacing" textLength="39.0137" x="420.5" y="1130.5791">&#1084;&#1086;&#1076;&#1077;&#1083;&#1100;</text></g><!--link E2 to ROUT--><g id="link_E2_ROUT"><path d="M144.11,445.3869 C107.29,464.3069 72.5,493.0869 72.5,534.2969 C72.5,534.2969 72.5,534.2969 72.5,1067.2969 C72.5,1101.0169 89.8056,1129.9614 106.5256,1151.4514 " fill="none" id="E2-to-ROUT" style="stroke:#5A7FA6;stroke-width:1.0;stroke-dasharray:7.0,7.0;"/><polygon fill="#5A7FA6" points="110.21,1156.1869,107.8404,1146.6273,107.1397,1152.2406,101.5264,1151.5399,110.21,1156.1869" style="stroke:#5A7FA6;stroke-width:1.0;"/></g><!--link E5 to ROUT--><g id="link_E5_ROUT"><path d="M195.65,1097.3069 C181.03,1115.7169 166.3137,1134.2301 152.7837,1151.2501 " fill="none" id="E5-to-ROUT" style="stroke:#5A7FA6;stroke-width:1.0;stroke-dasharray:7.0,7.0;"/><polygon fill="#5A7FA6" points="149.05,1155.9469,157.7817,1151.3908,152.1614,1152.0329,151.5193,1146.4126,149.05,1155.9469" style="stroke:#5A7FA6;stroke-width:1.0;"/></g><!--link AF to E1--><g id="link_AF_E1"><path d="M435.47,127.4169 C386.01,148.7569 330.949,172.5198 288.329,190.9098 " fill="none" id="AF-to-E1" style="stroke:#5A7FA6;stroke-width:1.0;stroke-dasharray:7.0,7.0;"/><polygon fill="#5A7FA6" points="282.82,193.2869,292.6683,193.3939,287.4109,191.306,289.4988,186.0486,282.82,193.2869" style="stroke:#5A7FA6;stroke-width:1.0;"/><text fill="#5A6672" font-family="Helvetica" font-size="10" lengthAdjust="spacing" textLength="65.5322" x="358.5" y="167.5791">spark-submit</text></g><!--link AF to E4B--><g id="link_AF_E4B"><path d="M521.5,127.5069 C521.5,152.5969 521.5,186.4369 521.5,216.2969 C521.5,216.2969 521.5,216.2969 521.5,740.2969 C521.5,782.6769 488.9744,806.6727 448.6344,822.5227 " fill="none" id="AF-to-E4B" style="stroke:#5A7FA6;stroke-width:1.0;stroke-dasharray:7.0,7.0;"/><polygon fill="#5A7FA6" points="443.05,824.7169,452.8894,825.1486,447.7037,822.8884,449.9638,817.7027,443.05,824.7169" style="stroke:#5A7FA6;stroke-width:1.0;"/><text fill="#5A6672" font-family="Helvetica" font-size="10" lengthAdjust="spacing" textLength="41.3428" x="522.5" y="478.5791">python3</text></g><rect fill="none" height="79.1875" id="_legend" rx="5" ry="5" style="stroke:#000000;stroke-width:1.0;" width="288.1816" x="188.1514" y="1316.2344"/><rect fill="#DCE9F5" height="16.2969" style="stroke:none;stroke-width:1.0;" width="13.3506" x="193.1514" y="1323.2344"/><text fill="#000000" font-family="Helvetica" font-size="14" lengthAdjust="spacing" textLength="13.3506" x="193.1514" y="1336.2295">&#160;&#160;&#160;</text><text fill="#000000" font-family="Helvetica" font-size="14" lengthAdjust="spacing" textLength="255.9307" x="210.9521" y="1336.2295">Spark standalone (master + worker)</text><rect fill="#FBE0D6" height="16.2969" style="stroke:none;stroke-width:1.0;" width="13.3506" x="193.1514" y="1339.5313"/><text fill="#000000" font-family="Helvetica" font-size="14" lengthAdjust="spacing" textLength="13.3506" x="193.1514" y="1352.5264">&#160;&#160;&#160;</text><text fill="#000000" font-family="Helvetica" font-size="14" lengthAdjust="spacing" textLength="217.1846" x="210.9521" y="1352.5264">Trainer &#8212; single-node &#1073;&#1091;&#1089;&#1090;&#1080;&#1085;&#1075;</text><rect fill="#E3EAF2" height="16.2969" style="stroke:none;stroke-width:1.0;" width="13.3506" x="193.1514" y="1355.8281"/><text fill="#000000" font-family="Helvetica" font-size="14" lengthAdjust="spacing" textLength="13.3506" x="193.1514" y="1368.8232">&#160;&#160;&#160;</text><text fill="#000000" font-family="Helvetica" font-size="14" lengthAdjust="spacing" textLength="215.3662" x="210.9521" y="1368.8232">HDFS (namenode + datanode)</text><rect fill="#FFF4E0" height="16.2969" style="stroke:none;stroke-width:1.0;" width="13.3506" x="193.1514" y="1372.125"/><text fill="#000000" font-family="Helvetica" font-size="14" lengthAdjust="spacing" textLength="13.3506" x="193.1514" y="1385.1201">&#160;&#160;&#160;</text><text fill="#000000" font-family="Helvetica" font-size="14" lengthAdjust="spacing" textLength="48.0566" x="210.9521" y="1385.1201">Airflow</text><line style="stroke:#000000;stroke-width:1.0;" x1="193.1514" x2="471.333" y1="1323.2344" y2="1323.2344"/><line style="stroke:#000000;stroke-width:1.0;" x1="193.1514" x2="471.333" y1="1339.5313" y2="1339.5313"/><line style="stroke:#000000;stroke-width:1.0;" x1="193.1514" x2="471.333" y1="1355.8281" y2="1355.8281"/><line style="stroke:#000000;stroke-width:1.0;" x1="193.1514" x2="471.333" y1="1372.125" y2="1372.125"/><line style="stroke:#000000;stroke-width:1.0;" x1="193.1514" x2="471.333" y1="1388.4219" y2="1388.4219"/><line style="stroke:#000000;stroke-width:1.0;" x1="193.1514" x2="193.1514" y1="1323.2344" y2="1388.4219"/><line style="stroke:#000000;stroke-width:1.0;" x1="206.502" x2="206.502" y1="1323.2344" y2="1388.4219"/><line style="stroke:#000000;stroke-width:1.0;" x1="471.333" x2="471.333" y1="1323.2344" y2="1388.4219"/><!--SRC=[TLRhRXDN4Fw_Jp627pKYSHnVKzGYRNmXKg5G6zG_aQpZtHDdcxs4tPC4sbHAe82gf4AjAhMFuIHrOr8IfFO5Tb-19-dCdBMzO6F9zZbxpinyC_FDp4PRZhyjGk51JrXR_J3OyUrwu0OXN6_nnuWcDw9DOGTxZj-73U56CdDYomsnuwfMuAklXITXJRgxKZcMc7-dutmlORcOEKpjXhuCORcGEV03MqPo6ugLx6tXRz73SlQX6OR1NWgzOjPQPlNZGp8zkL2jrehpBcXiMGYXj9Jm-ww47mo0rI2qPPYgATThA-OAFiseNcuL6wM6yQDXA4UXK3sKjgEWOmKXXIxte743tX_y3l4WEKXUnAFaMJoCBv9doVFa81v0_2uUn6_mzn_-lum7Xl4PV4aVI5xG5NmsmjDHydCyr0V65EAr-C_a45LU9Q_utaKyMlVTm18kU1XZjUwhK3X-rnPAB2s0af7IQyYXjuztfBenlg94s9SgRqMxwRtfWtM_MCqN8NwBE2w132Amg_W2_Zs7KhuoFa3hY1FTkoH4yUar415qsdNaLh5LQQraSQyrMXs09SOIYhrr7xKUOOIEaryXFeKK76jOQvlVmlLcgMcsYfzIiI65sWbbjEx7fnHZn3UYOCvWWX8K2WN-_lS7BA-Kj8bMqtmuiJ5Dm2yeD8ZV9KVGGKHRi-7757EeWkwclH7bjvz-uCZxbxy1eMGRpMMutgWtFszLiWgaBReHwMPPRQNppTrR49-WPIB5PNAu0F5Vx0PxD4epJYwE5jZW0JfuZYYHHrVQvG4-FKJfjzfsSPxjST0o053YZBMTeOQNQEerX3xxuTYGcy13qdXI-4kUUBBaYaZ1JI0-uFSIyHuXKPEVKFXLFDBcI_FCzqGaNSUNNSzrdHwRlnlqsx8_DdJlBZv7K-txzKNpKHqA-LgnG9oxu_WExihbWbPVDYVwv-KkFi5YevXH0D6nsJHo1MW4JdzJtLcz1pcCy27UHyvGs9FN7mAfr390AikL5CWgSdsrMMXKPxHtBQ5wGH0fDbCNQfKsaEFi3TZ8a4ju-96XKggwFa-rt1NkZb2IbQ8KWNhGfj-lElIBEHamSqwuOazfppKoYFycvxYMZ-dcB0ugwoiatX0L3ECt6aPb7efjwdcMIkbFF4ZhxmmgM6XeuYWvpC_l3ytgF8tebeE5BRlHJizpeiW9T7eG7-c-ejooSyYn8USMNOBfPQswDb4zeGMtOMp1oCy1j-6ZMJQ4SZi8LRI4vgWO1iHbwgpGR9XOVjcuZ1R0aofqh2Z_NPIQRTz_z71Uo_DmjhcarUttlBnweYZi4rPOFO-bxtr2EXC8xiYElG0H3XcfksnMQkeinUf21uWTqHKzux3fX1jki0SDymw0nGEi6-a1XeQunN4Fm6R5_-F6mPjn6VE6gKwhyLGP-wVbKxRo9YKDhyVfneYVSz4-9nfDQfWRDsUQ6ntOWRM5RmxoYRJOUxF5ho_bPY7Zk-wNGnggs97US6zatbsa0Q3918kBjx4p6zYSzPg6ZS4JXq-A1hREz5R9m3wMtg9vOUYfmMTbqw0kb6vM3Ue4wQPkKEtgJSN00ahNLGEfdwvhqpLbCkF5ITfNJtLNFSJ5QupHAFL1GyZdsIhS8g-lTCqdnxfj0Ok_uyIdKtMAZiWsXSSxvXyhh9A-2TMJOnqAEcgpM2MxCp07B8M1l0KyK1QPicfomW2tdwhDm2yPXYlxqhUX5oWLUFXAjVz5si9lezhzTDv6o51Rk06oA-VXdC6atuIz8CJitu1zBQKhN4iz9CxX9NhXYXmYzoAzKNuq0SQIUjnhINwPoFduDii2Du5UAsWvjSC4qxV71RDle0_Q4-D_]--></g></svg>